<svg width="461" height="711" viewBox="0 0 461 711" fill="none" xmlns="http://www.w3.org/2000/svg">
<rect width="460.908" height="711" fill="#38454F"/>
<rect x="32.9219" y="21.877" width="395.064" height="627.399" rx="18.7995" fill="#677883"/>
<rect x="121.152" y="80.4756" width="218.602" height="57.8176" rx="11.7497" fill="white"/>
<rect x="121.152" y="161.733" width="218.602" height="15.6264" rx="7.81319" fill="#495A65"/>
<path fill-rule="evenodd" clip-rule="evenodd" d="M32.9219 589.114V630.476C32.9219 640.859 41.3387 649.276 51.7214 649.276H409.186C419.569 649.276 427.985 640.859 427.985 630.476V40.6764C427.985 30.2938 419.569 21.877 409.186 21.877H375.311V461.043C375.311 531.775 317.971 589.114 247.239 589.114H32.9219Z" fill="#566976"/>
<rect x="134.322" y="298.463" width="73.444" height="26.3376" rx="13.1688" transform="rotate(90 134.322 298.463)" fill="white"/>
<rect x="121.152" y="190.642" width="218.602" height="14.8451" rx="7.42253" fill="#495A65"/>
<rect x="121.152" y="532.078" width="94.8153" height="15.6264" rx="7.81319" fill="#495A65"/>
<rect x="121.152" y="557.08" width="63.2102" height="14.8451" rx="7.42253" fill="#495A65"/>
</svg>
